D:\school\WTK\thesis\model\3dpredictsim\Results\batch_windlass\Pog_s1_tmt_bCst_d05_k500_WL20_ig24_pas_GRF.mot
nRows=10
nColumns=19

name D:\school\WTK\thesis\model\3dpredictsim\Results\batch_windlass\Pog_s1_tmt_bCst_d05_k500_WL20_ig24_pas_GRF.mot
datacolumns 19
datarows 10
range 0.5417572735 0.6392735828
endheader
time 	ground_force_vx	ground_force_vy	ground_force_vz	ground_force_px	ground_force_py	ground_force_pz	1_ground_force_vx	1_ground_force_vy	1_ground_force_vz	1_ground_force_px	1_ground_force_py	1_ground_force_pz	ground_torque_x	ground_torque_y	ground_torque_z	1_ground_torque_x	1_ground_torque_y	1_ground_torque_z
        0.5417572735	       88.2149660220	      418.6947126497	        3.5709360587	        0.3412745914	        0.0000000000	        0.0326002072	      -90.5914618394	       75.3491175008	      -31.5999928132	        0.8132909371	        0.0000000000	       -0.0417779718	        0.0000000000	        0.0000000000	        0.0000000000	        0.0000000000	        0.0000000000	        0.0000000000	
        0.5525924190	       60.0948946582	      320.6571809933	       12.4666374111	        0.3479531758	        0.0000000000	        0.0298877299	     -140.3648355633	      157.3767092135	      -72.8236904211	        0.8235258218	        0.0000000000	       -0.0405700778	        0.0000000000	        0.0000000000	        0.0000000000	        0.0000000000	        0.0000000000	        0.0000000000	
        0.5634275645	       29.4933664391	      217.6410637591	       13.5657773368	        0.3595703195	        0.0000000000	        0.0241007349	      -68.4104671289	      362.8230853033	      -28.8337800550	        0.8373687661	        0.0000000000	       -0.0411732052	        0.0000000000	        0.0000000000	        0.0000000000	        0.0000000000	        0.0000000000	        0.0000000000	
        0.5742627099	        9.9533171249	      157.9980185689	       13.4677801138	        0.3697462300	        0.0000000000	        0.0180761732	      -69.9947729825	      606.5129971473	        3.6090912829	        0.8455834381	        0.0000000000	       -0.0423976703	        0.0000000000	        0.0000000000	        0.0000000000	        0.0000000000	        0.0000000000	        0.0000000000	
        0.5850978554	        3.0471021088	      124.3384522144	       12.0661220913	        0.3696241446	        0.0000000000	        0.0181694734	      -98.5237260064	      802.2499587831	       13.1186747798	        0.8534932514	        0.0000000000	       -0.0427370320	        0.0000000000	        0.0000000000	        0.0000000000	        0.0000000000	        0.0000000000	        0.0000000000	
        0.5959330009	       -2.7551488138	       82.2833814941	       10.3890632699	        0.3698296399	        0.0000000000	        0.0181760014	     -124.9751199557	      923.5323506622	       15.1530082676	        0.8632112058	        0.0000000000	       -0.0422438767	        0.0000000000	        0.0000000000	        0.0000000000	        0.0000000000	        0.0000000000	        0.0000000000	
        0.6067681463	      -10.4306056443	       32.8754292219	        5.6747637222	        0.3688868424	        0.0000000000	        0.0181305791	     -130.4968935849	      943.0470504681	       12.9734041118	        0.8697193895	        0.0000000000	       -0.0415584845	        0.0000000000	        0.0000000000	        0.0000000000	        0.0000000000	        0.0000000000	        0.0000000000	
        0.6176032918	        0.0993732964	       -0.1000586558	       -0.0045742748	        0.0000000000	        0.0000000000	        0.0000000000	     -117.6022099030	      902.3492224725	       12.0417099795	        0.8733883877	        0.0000000000	       -0.0410272641	        0.0000000000	        0.0000000000	        0.0000000000	        0.0000000000	        0.0000000000	        0.0000000000	
        0.6284384373	        0.0001483880	       -0.0001232568	        0.0000040274	        0.0000000000	        0.0000000000	        0.0000000000	      -99.8702348067	      841.5445136871	       12.6144237661	        0.8765065140	        0.0000000000	       -0.0406166422	        0.0000000000	        0.0000000000	        0.0000000000	        0.0000000000	        0.0000000000	        0.0000000000	
        0.6392735828	        0.0000280071	       -0.0000201263	        0.0000013875	        0.0000000000	        0.0000000000	        0.0000000000	      -84.7556677185	      783.8731402259	       13.3786281334	        0.8796004926	        0.0000000000	       -0.0403296524	        0.0000000000	        0.0000000000	        0.0000000000	        0.0000000000	        0.0000000000	        0.0000000000	
